<svg xmlns="http://www.w3.org/2000/svg" x="0px" y="0px" width="100" height="100" viewBox="0 0 48 48">
<path fill="#f88200" d="M27,24c0,0-4.1,4-8,4s-8-4-8-4s0.2-0.19,0.55-0.5c0.17-0.14,0.37-0.31,0.61-0.5	c1.13-0.89,2.95-2.15,4.91-2.71C17.71,20.11,18.36,20,19,20s1.29,0.11,1.93,0.29c1.96,0.56,3.78,1.82,4.91,2.71	c0.24,0.19,0.44,0.36,0.61,0.5C26.8,23.81,27,24,27,24z"></path><path fill="#f88200" d="M26,42H12c0-1.5,3.3-2.4,5-2.8V39c0-0.37,0.02-0.75,0.06-1.12v-0.01c0.02-0.17,0.04-0.33,0.06-0.49	c0.02-0.17,0.05-0.34,0.08-0.5C17.54,34.82,18.31,33,19,33c0.7,0,1.46,1.84,1.81,3.92c0.03,0.16,0.05,0.33,0.08,0.5	c0.02,0.16,0.04,0.32,0.06,0.49v0.01C20.98,38.28,21,38.64,21,39v0.2C22.7,39.6,26,40.6,26,42z"></path><linearGradient id="YEB4Gq4VDEo9j_2FbTn7Wa_NPa1BmTK00YW_gr1" x1="15.668" x2="20.712" y1="14.602" y2="19.745" gradientUnits="userSpaceOnUse"><stop offset=".491" stop-color="#fac600"></stop><stop offset="1" stop-color="#d66b00"></stop></linearGradient><circle cx="19" cy="18" r="2" fill="url(#YEB4Gq4VDEo9j_2FbTn7Wa_NPa1BmTK00YW_gr1)"></circle><linearGradient id="YEB4Gq4VDEo9j_2FbTn7Wb_NPa1BmTK00YW_gr2" x1="9.689" x2="36.788" y1="5.769" y2="39.989" gradientUnits="userSpaceOnUse"><stop offset=".491" stop-color="#fac600"></stop><stop offset="1" stop-color="#d66b00"></stop></linearGradient><path fill="url(#YEB4Gq4VDEo9j_2FbTn7Wb_NPa1BmTK00YW_gr2)" d="M44,21c0,0-7.6,3-11,3H9c-1.5,0-5.2-2.7-7.3-4.7C1.5,19.1,1.3,19,1,19c-0.6,0-1,0.4-1,1 c-0.1,0.6,0,1.3,0,2c0,10.2,9,12.4,12,12.9c1.34,0.95,3.06,1.71,5.2,1.98C17.77,36.96,18.37,37,19,37c0.61,0,1.21-0.03,1.81-0.08 C35.11,35.73,48,21,48,21H44z M2,22.2c1.4,1.1,3.3,2.6,5,3.3v0.4c0.2,1.1,0.5,2.4,1.1,3.8C5,28.8,2.1,26.8,2,22.2z"></path><path fill="#151515" d="M26.45,23.5h-14.9C11.2,23.81,11,24,11,24h16C27,24,26.8,23.81,26.45,23.5z M19,37 c-0.63,0-1.23-0.04-1.8-0.12c-0.03,0.16-0.06,0.33-0.08,0.5c0.01,0,0.01,0,0.02,0c0.58,0.08,1.21,0.12,1.86,0.12 c0.59,0,1.19-0.03,1.85-0.08h0.04c-0.03-0.17-0.05-0.34-0.08-0.5C20.21,36.97,19.61,37,19,37z" opacity=".05"></path><g opacity=".05"><path fill="#151515" d="M26.45,23.5c-0.17-0.14-0.37-0.31-0.61-0.5H12.16c-0.24,0.19-0.44,0.36-0.61,0.5 C11.2,23.81,11,24,11,24h16C27,24,26.8,23.81,26.45,23.5z M20.81,36.92C20.21,36.97,19.61,37,19,37c-0.63,0-1.23-0.04-1.8-0.12 c-0.03,0.16-0.06,0.33-0.08,0.5c-0.02,0.16-0.04,0.32-0.06,0.49h0.01C17.67,37.96,18.33,38,19,38c0.6,0,1.22-0.03,1.89-0.08 c0.02,0,0.04,0,0.06-0.01c-0.02-0.17-0.04-0.33-0.06-0.49C20.86,37.25,20.84,37.08,20.81,36.92z"></path></g>
</svg>