<svg xmlns="http://www.w3.org/2000/svg" x="0px" y="0px" width="100" height="100" viewBox="0 0 48 48">
<linearGradient id="gXzOeldHYSYZHNlpCcAWla_uJP6M6Qi3A6T_gr1" x1="8.954" x2="11.771" y1="29.614" y2="8.767" gradientTransform="matrix(1 0 0 -1 0 50)" gradientUnits="userSpaceOnUse"><stop offset="0" stop-color="#4b4b4b"></stop><stop offset="1" stop-color="#252525"></stop></linearGradient><path fill="url(#gXzOeldHYSYZHNlpCcAWla_uJP6M6Qi3A6T_gr1)" d="M13.499,30.607c-1.243,4.843-1.83,5.853-3.174,7.335c-1.067,1.176-1.832,0.579-2.153-0.368	c-0.609-1.798-0.278-8.655,3.989-12.699L13.499,30.607z"></path><linearGradient id="gXzOeldHYSYZHNlpCcAWlb_uJP6M6Qi3A6T_gr2" x1="23.74" x2="32.123" y1="60.617" y2="-1.404" gradientTransform="matrix(1 0 0 -1 0 50)" gradientUnits="userSpaceOnUse"><stop offset="0" stop-color="#4b4b4b"></stop><stop offset="1" stop-color="#252525"></stop></linearGradient><path fill="url(#gXzOeldHYSYZHNlpCcAWlb_uJP6M6Qi3A6T_gr2)" d="M36,42h-9L16.247,7.081C17.992,5.303,21.213,4,25,4c10,0,13,11.297,13,20.541V40	C38,41.105,37.105,42,36,42z"></path><linearGradient id="gXzOeldHYSYZHNlpCcAWlc_uJP6M6Qi3A6T_gr3" x1="14.144" x2="28.714" y1="45.362" y2="-11.753" gradientTransform="matrix(1 0 0 -1 0 50)" gradientUnits="userSpaceOnUse"><stop offset="0" stop-color="#faf8e5"></stop><stop offset="1" stop-color="#faeeac"></stop></linearGradient><path fill="url(#gXzOeldHYSYZHNlpCcAWlc_uJP6M6Qi3A6T_gr3)" d="M16.247,7.081C11.923,11.06,11,18.379,11,24.615V39c0,1.657,1.343,3,3,3h13	c0-7.159,2-16.317,2-23.476C29,8,23,6.058,16.247,7.081z"></path><circle cx="13" cy="15" r="3" fill="#313131"></circle><ellipse cx="11.886" cy="13.92" fill="#fff" rx="1.345" ry=".906" transform="rotate(-35.653 11.885 13.919)"></ellipse><linearGradient id="gXzOeldHYSYZHNlpCcAWld_uJP6M6Qi3A6T_gr4" x1="12.496" x2="12.496" y1="33.987" y2="31.035" gradientTransform="matrix(1 0 0 -1 0 50)" gradientUnits="userSpaceOnUse"><stop offset="0" stop-color="#ffd869"></stop><stop offset="1" stop-color="#fec52b"></stop></linearGradient><path fill="url(#gXzOeldHYSYZHNlpCcAWld_uJP6M6Qi3A6T_gr4)" d="M7.388,17.519C9.141,17.117,17,16,17,16c0.518,0.333,0.992,0.73,0.992,1.565	c0,0.777-0.451,1.124-0.992,1.435c0,0-7.826-0.337-9.574-0.646C6.873,18.256,6.858,17.641,7.388,17.519z"></path><circle cx="23" cy="15" r="3" fill="#313131"></circle><ellipse cx="21.886" cy="13.919" fill="#fff" rx="1.345" ry=".906" transform="rotate(-35.653 21.885 13.919)"></ellipse><path fill="#e3a600" d="M17,19c0.413-0.238,0.769-0.499,0.917-0.953l-6.708,0.646C13.942,18.942,17,19,17,19z"></path><linearGradient id="gXzOeldHYSYZHNlpCcAWle_uJP6M6Qi3A6T_gr5" x1="26.814" x2="29.469" y1="28.415" y2="8.772" gradientTransform="matrix(1 0 0 -1 0 50)" gradientUnits="userSpaceOnUse"><stop offset="0" stop-color="#4b4b4b"></stop><stop offset="1" stop-color="#252525"></stop></linearGradient><path fill="url(#gXzOeldHYSYZHNlpCcAWle_uJP6M6Qi3A6T_gr5)" d="M31.801,26.068c-0.401-0.534-1.199-0.538-1.598-0.003c-2.973,3.981-6.953,9.45-7.241,11.257	C22.712,38.891,23.5,39,24.5,39c0.986,0,8.295,0,9.455-9.593c0.031-0.257-0.042-0.523-0.197-0.73L31.801,26.068z"></path>
</svg>